<?xml version="1.0" standalone="yes"?>

<svg version="1.1" viewBox="0.0 0.0 187.51706036745406 184.96325459317586" fill="none" stroke="none" stroke-linecap="square" stroke-miterlimit="10" xmlns="http://www.w3.org/2000/svg" xmlns:xlink="http://www.w3.org/1999/xlink"><clipPath id="p.0"><path d="m0 0l187.51706 0l0 184.96326l-187.51706 0l0 -184.96326z" clip-rule="nonzero"></path></clipPath><g clip-path="url(#p.0)"><path fill="#000000" fill-opacity="0.0" d="m0 0l187.51706 0l0 184.96326l-187.51706 0z" fill-rule="evenodd"></path><path fill="#000000" fill-opacity="0.0" d="m14.228347 93.99475l0 0c0 -44.05232 35.71146 -79.76378 79.76378 -79.76378l0 0c21.15467 0 41.4429 8.403659 56.401505 23.36227c14.958618 14.958611 23.362274 35.246838 23.362274 56.40151l0 0c0 44.052322 -35.711456 79.76378 -79.76378 79.76378l0 0c-44.05232 0 -79.76378 -35.711456 -79.76378 -79.76378z" fill-rule="evenodd"></path><path stroke="#674ea7" stroke-width="8.0" stroke-linejoin="round" stroke-linecap="butt" d="m14.228347 93.99475l0 0c0 -44.05232 35.71146 -79.76378 79.76378 -79.76378l0 0c21.15467 0 41.4429 8.403659 56.401505 23.36227c14.958618 14.958611 23.362274 35.246838 23.362274 56.40151l0 0c0 44.052322 -35.711456 79.76378 -79.76378 79.76378l0 0c-44.05232 0 -79.76378 -35.711456 -79.76378 -79.76378z" fill-rule="evenodd"></path><path fill="#000000" fill-opacity="0.0" d="m14.228347 62.372704l159.52756 0l0 63.244095l-159.52756 0z" fill-rule="evenodd"></path><path fill="#674ea7" d="m43.400223 92.84145q-0.03125 0.5 0.046875 0.78125q0.078125 0.265625 0.203125 0.59375q0.140625 0.328125 0.28125 0.71875q0.15625 0.375 0.21875 0.8125q0.078125 0.5625 0 1.171875q-0.0625 0.609375 -0.25 1.1875q-0.1875 0.5625 -0.515625 1.078125q-0.328125 0.5 -0.6875 0.71875q-0.484375 0.59375 -1.171875 0.9375q-0.671875 0.328125 -1.1875 0.765625q-0.5 0.296875 -0.984375 0.421875q-0.484375 0.109375 -0.859375 0.1875q-0.296875 0.15625 -0.8125 0.375q-0.5 0.21875 -1.0625 0.421875q-0.546875 0.1875 -1.140625 0.28125q-0.59375 0.078125 -0.890625 0.0625q-0.90625 0.328125 -1.921875 0.453125q-1.0156269 0.125 -2.234377 -0.125q-1.1875 0.15625 -2.296875 -0.140625q-1.09375 -0.296875 -1.953125 -0.921875q-0.859375 -0.640625 -1.484375 -1.5q-0.609375 -0.875 -1.03125 -1.890625q-0.296875 -2.078125 0.125 -3.671875q0.421875 -1.609375 1.1875 -2.9375q0.765625 -1.34375 1.71875 -2.453125q0.953125 -1.125 2.140625 -2.53125q0.34375 0.5 0.234375 0.375q-0.109375 -0.125 -0.046875 -0.234375q0.078125 -0.109375 0.28125 -0.34375q0.21875 -0.234375 0.515625 0.09375q-0.09375 -0.703125 0.359375 -0.953125q0.453125 -0.265625 0.78125 -0.8125q0.453125 -0.09375 0.5625 -0.171875q0.125 -0.078125 0.296875 -0.234375q0.171875 -0.15625 0.4218769 -0.34375q0.25 -0.1875 0.453125 0.078125l-0.3125 -0.5q0.828125 -0.390625 1.046875 -0.65625q0.234375 -0.28125 0.796875 -0.984375q0.609375 -0.0625 0.765625 -0.0625q0.171875 0 0.15625 0q0.125 -0.234375 0.390625 -0.53125q0.28125 -0.296875 1.109375 -0.78125q0.625 0.296875 1.140625 0.375q0.53125 0.0625 1.21875 0.765625q0.03125 0.328125 0.09375 0.40625q0.078125 0.078125 0.25 0.21875q0.171875 0.125 0.4375 0.359375q0.28125 0.234375 -0.09375 0.71875q-0.140625 -0.03125 -0.1875 -0.359375q-0.046875 -0.328125 0.9375 -0.078125q0.15625 0.6875 0.265625 0.8125q0.125 0.125 0.375 0.96875q-0.234375 0.5 -0.359375 0.953125q-0.109375 0.453125 -0.609375 0.4375q-0.1875 -0.265625 0.125 -0.46875q0.328125 -0.203125 0.46875 0.484375q0.0625 0.65625 -0.5 0.5625q1.109375 0.890625 1.71875 2.3125q0.609375 1.40625 1.46875 2.796875zm-5.28125 2.75q0.09375 -0.25 0.265625 -0.421875q0.171875 -0.1875 0.171875 -0.15625q-0.109375 -0.1875 -0.171875 -0.421875q-0.046875 -0.234375 -0.046875 -0.421875q-0.609375 -0.875 -1.140625 -2.015625q-0.515625 -1.15625 -0.53125 -2.328125q0.46875 0.421875 0 0.78125q-0.46875 0.34375 -0.515625 -0.453125q0.4375 0.390625 0.078125 0.640625q-0.359375 0.25 -0.734375 0.21875q-0.359375 -0.03125 -0.671875 -0.140625q-0.3125 -0.125 -0.125 -0.546875q-0.5 0.984375 -1.40625 1.671875q-0.890625 0.6875 -1.6562519 1.625q-0.625 0.390625 -0.65625 0.03125q-0.015625 -0.359375 0.1875 -0.078125q0 0.59375 -0.40625 1.125q-0.390625 0.53125 -0.71875 1.015625q-0.328125 0.484375 -0.546875 0.96875q-0.21875 0.484375 -0.234375 0.78125q0.125 0.109375 0.734375 0.203125q0.609375 0.078125 1.34375 0.015625q0.7343769 -0.078125 1.5000019 -0.21875q0.78125 -0.140625 1.40625 -0.140625q1.1875 -0.28125 2.109375 -0.796875q0.9375 -0.515625 1.765625 -0.9375z" fill-rule="nonzero"></path><path fill="#1155cc" d="m67.469864 102.73208q-0.3125 0.140625 -0.65625 0.3125q-0.34375 0.171875 -1.09375 0.171875q-1.71875 -1.28125 -1.765625 -3.8125q-0.046875 -2.546875 1.09375 -6.5q0.40625 0.171875 0.0625 0.359375l0.265625 -0.296875q0.09375 0.390625 0.078125 0.234375q-0.015625 -0.15625 0.203125 0.140625q-1.015625 0.75 -2.046875 1.4375q-1.015625 0.671875 -2.140625 1.265625q-1.109375 0.578125 -2.3125 0.953125q-1.1875 0.375 -2.359375 0.375q-3.125 0 -4.671875 -3.109375l0.328125 -0.21875l0.328125 0.234375q-0.0625 0.09375 -0.234375 0.453125q-0.171875 0.359375 -0.359375 0.84375q-0.171875 0.484375 -0.3125 0.953125q-0.125 0.453125 -0.078125 1.046875q-0.484375 0.484375 -0.765625 0.8125q-0.265625 0.328125 -0.375 0.65625q-0.046875 -0.03125 0.140625 0.171875q-0.171875 0.8125 -0.546875 1.0625q-0.09375 0.140625 -0.21875 0.265625q-0.109375 0.109375 -0.15625 0.171875q-0.015625 0.03125 -0.03125 0.140625q0 0.109375 -0.03125 0.25q0 0.265625 -0.109375 0.609375q-0.609375 1.265625 -1.078125 1.75q-0.453125 0.484375 -1.296875 0.484375q-0.328125 0 -1.1875 -0.140625q-0.65625 -0.71875 -1.03125 -1.59375q-0.375 -0.875 -0.578125 -1.84375q-0.1875 -0.984375 -0.171875 -2.0q0.015625 -1.03125 0.859375 -1.578125q-0.546875 -0.140625 -0.265625 -0.8125q0.28125 -0.6875 0.6875 -1.65625q0.421875 -0.96875 0.9375 -2.140625q0.515625 -1.1875 1.03125 -2.296875q0.515625 -1.125 0.984375 -2.078125q0.484375 -0.96875 0.828125 -1.484375q0.25 -0.390625 0.453125 -0.71875q0.21875 -0.328125 0.40625 -0.65625q0.609375 -1.03125 1.203125 -1.78125q0.609375 -0.75 2.078125 -1.296875q1.09375 0.453125 1.65625 1.09375l0.09375 0.484375q-0.28125 0.125 -0.1875 -0.171875q0.453125 0.125 0.671875 0.203125q0.234375 0.0625 0.734375 0.171875q0.40625 0.5 0.625 0.875q0.25 0.375 0.5 0.78125q0.265625 0.40625 0.453125 0.859375q0.1875 0.453125 0.203125 0.984375q0.015625 0.515625 -0.140625 0.890625l0 0.015625q0.21875 0.40625 0.078125 1.140625q-0.015625 0.15625 -0.015625 0.34375q0 0.171875 0 0.15625q0.1875 0.140625 0.40625 0.140625q0.328125 0 0.671875 -0.1875q0.34375 -0.203125 0.703125 -0.4375q0.28125 -0.1875 0.609375 -0.375q0.34375 -0.203125 0.5 -0.21875q0.421875 -0.390625 0.890625 -0.8125q0.484375 -0.4375 1.015625 -0.875q0.953125 -0.75 1.78125 -1.59375q0.84375 -0.84375 1.4375 -2.265625q0.65625 -0.421875 1.21875 -0.421875q0.5 0 0.9375 0.203125q0.453125 0.1875 0.90625 0.375q0.09375 0.078125 0.125 0.09375q0.046875 0.015625 0.515625 0.25q0 0.421875 0.015625 0.4375q0.140625 0.109375 0.0625 0.25q-0.078125 0.125 0.0625 -0.140625q0.671875 0.359375 0.953125 0.859375q0.171875 0.578125 0.921875 1.0625q-0.125 0.625 -0.078125 0.796875q0.046875 0.15625 0.1875 0.453125q0.046875 0.125 0.0625 0.203125q0.03125 0.0625 0.625 1.265625l-1.21875 -0.34375l0.21875 -0.015625q0.078125 0.59375 -0.109375 1.25q-0.171875 0.65625 -0.3125 0.890625q0.03125 0.640625 0.046875 1.15625q0.015625 0.5 -0.0625 0.953125q-0.0625 0.453125 -0.203125 0.859375q-0.125 0.390625 -0.25 0.6875q0.109375 2.03125 -0.515625 3.8125q-0.609375 1.765625 -1.25 3.265625q-0.078125 0.171875 -0.171875 0.34375q-0.078125 0.15625 -0.25 0.578125q-0.53125 0.1875 -0.75 0.296875q-0.203125 0.09375 -0.46875 0.234375zm24.03482 -9.890625q-0.03125 0.5 0.046875 0.78125q0.078125 0.265625 0.203125 0.59375q0.140625 0.328125 0.28125 0.71875q0.15625 0.375 0.21875 0.8125q0.078125 0.5625 0 1.171875q-0.0625 0.609375 -0.25 1.1875q-0.1875 0.5625 -0.515625 1.078125q-0.328125 0.5 -0.6875 0.71875q-0.484375 0.59375 -1.171875 0.9375q-0.671875 0.328125 -1.1875 0.765625q-0.5 0.296875 -0.984375 0.421875q-0.484375 0.109375 -0.859375 0.1875q-0.296875 0.15625 -0.8125 0.375q-0.5 0.21875 -1.0625 0.421875q-0.546875 0.1875 -1.140625 0.28125q-0.59375 0.078125 -0.890625 0.0625q-0.90625 0.328125 -1.921875 0.453125q-1.015625 0.125 -2.234375 -0.125q-1.1875 0.15625 -2.296875 -0.140625q-1.09375 -0.296875 -1.953125 -0.921875q-0.859375 -0.640625 -1.484375 -1.5q-0.609375 -0.875 -1.03125 -1.890625q-0.296875 -2.078125 0.125 -3.671875q0.421875 -1.609375 1.1875 -2.9375q0.765625 -1.34375 1.71875 -2.453125q0.953125 -1.125 2.140625 -2.53125q0.34375 0.5 0.234375 0.375q-0.109375 -0.125 -0.046875 -0.234375q0.078125 -0.109375 0.28125 -0.34375q0.21875 -0.234375 0.515625 0.09375q-0.09375 -0.703125 0.359375 -0.953125q0.453125 -0.265625 0.78125 -0.8125q0.453125 -0.09375 0.5625 -0.171875q0.125 -0.078125 0.296875 -0.234375q0.171875 -0.15625 0.421875 -0.34375q0.25 -0.1875 0.453125 0.078125l-0.3125 -0.5q0.828125 -0.390625 1.046875 -0.65625q0.234375 -0.28125 0.796875 -0.984375q0.609375 -0.0625 0.765625 -0.0625q0.171875 0 0.15625 0q0.125 -0.234375 0.390625 -0.53125q0.28125 -0.296875 1.109375 -0.78125q0.625 0.296875 1.140625 0.375q0.53125 0.0625 1.21875 0.765625q0.03125 0.328125 0.09375 0.40625q0.078125 0.078125 0.25 0.21875q0.171875 0.125 0.4375 0.359375q0.28125 0.234375 -0.09375 0.71875q-0.140625 -0.03125 -0.1875 -0.359375q-0.046875 -0.328125 0.9375 -0.078125q0.15625 0.6875 0.265625 0.8125q0.125 0.125 0.375 0.96875q-0.234375 0.5 -0.359375 0.953125q-0.109375 0.453125 -0.609375 0.4375q-0.1875 -0.265625 0.125 -0.46875q0.328125 -0.203125 0.46875 0.484375q0.0625 0.65625 -0.5 0.5625q1.109375 0.890625 1.71875 2.3125q0.609375 1.40625 1.46875 2.796875zm-5.28125 2.75q0.09375 -0.25 0.265625 -0.421875q0.171875 -0.1875 0.171875 -0.15625q-0.109375 -0.1875 -0.171875 -0.421875q-0.046875 -0.234375 -0.046875 -0.421875q-0.609375 -0.875 -1.140625 -2.015625q-0.515625 -1.15625 -0.53125 -2.328125q0.46875 0.421875 0 0.78125q-0.46875 0.34375 -0.515625 -0.453125q0.4375 0.390625 0.078125 0.640625q-0.359375 0.25 -0.734375 0.21875q-0.359375 -0.03125 -0.671875 -0.140625q-0.3125 -0.125 -0.125 -0.546875q-0.5 0.984375 -1.40625 1.671875q-0.890625 0.6875 -1.65625 1.625q-0.625 0.390625 -0.65625 0.03125q-0.015625 -0.359375 0.1875 -0.078125q0 0.59375 -0.40625 1.125q-0.390625 0.53125 -0.71875 1.015625q-0.328125 0.484375 -0.546875 0.96875q-0.21875 0.484375 -0.234375 0.78125q0.125 0.109375 0.734375 0.203125q0.609375 0.078125 1.34375 0.015625q0.734375 -0.078125 1.5 -0.21875q0.78125 -0.140625 1.40625 -0.140625q1.1875 -0.28125 2.109375 -0.796875q0.9375 -0.515625 1.765625 -0.9375zm23.335266 -1.5625q-0.046875 0.265625 -0.09375 0.40625q-0.03125 0.140625 -0.046875 0.1875q-0.015625 0.046875 -0.015625 0.140625q0 0.09375 0 0.5q-1.125 1.984375 -2.671875 3.203125q-1.546875 1.21875 -3.359375 2.125q-1.796875 0.90625 -3.703125 1.640625q-1.90625 0.734375 -3.90625 1.65625q-1.21875 -0.28125 -1.75 -0.859375q-0.515625 -0.59375 -0.765625 -1.296875q-0.234375 -0.703125 -0.328125 -1.46875q-0.078125 -0.765625 -0.140625 -1.671875q0.15625 -0.609375 0.296875 -0.796875q0.15625 -0.203125 0.15625 -0.515625q0.28125 -0.953125 0.53125 -1.71875q0.25 -0.765625 0.3125 -1.65625q0.265625 -0.625 0.625 -0.484375q-0.125 -1.234375 -0.265625 -2.765625q-0.125 -1.546875 -0.546875 -2.984375q0.0625 -0.53125 0.34375 -0.578125q0.296875 -0.0625 -0.234375 0.109375q-0.15625 -1.21875 0.4375 -1.21875q0.609375 0 0.609375 0.46875q-0.46875 -0.140625 -0.625 -0.578125q-0.15625 -0.453125 -0.40625 -1.328125q0.296875 -0.625 0.359375 -1.109375q0.078125 -0.5 0.6875 -1.421875q2.265625 0.734375 3.84375 1.5q1.59375 0.765625 3.203125 1.125q1.25 0.921875 2.5 1.765625q1.25 0.828125 2.3125 1.875q1.0625 1.03125 1.796875 2.40625q0.734375 1.375 0.84375 3.34375zm-8.71875 1.140625q0.796875 -0.3125 1.421875 -0.578125q0.640625 -0.28125 1.140625 -0.609375q0.515625 -0.34375 0.890625 -0.734375q0.375 -0.40625 0.5 -0.6875q0 0 -0.28125 -0.25q-0.265625 -0.265625 -0.578125 -0.53125q-0.3125 -0.28125 -0.6875 -0.625q-0.375 -0.34375 -0.453125 -0.546875q-0.171875 -0.03125 -0.5625 -0.234375q-0.375 -0.203125 -0.671875 -0.375q-0.296875 -0.171875 -0.5625 -0.296875q-0.265625 -0.140625 -0.71875 -0.171875q-0.78125 -0.390625 -1.390625 -0.546875q-0.609375 -0.171875 -0.78125 -0.484375q0.171875 -0.125 0.1875 -0.375q0.671875 0.984375 0.84375 2.109375q0.171875 1.109375 0.1875 2.234375q0.015625 1.125 -0.109375 2.296875q-0.125 1.15625 -0.75 2.09375q-0.125 -0.421875 0.078125 -0.5q0.21875 -0.09375 0.5 -0.234375q0.28125 -0.140625 0.640625 -0.265625q0.375 -0.125 0.6875 0.15625q-0.203125 -0.296875 0.03125 -0.453125q0.234375 -0.171875 0.4375 -0.390625zm28.378922 -11.125q0.078125 0.875 0.234375 1.34375q0.15625 0.46875 0.328125 0.953125q0.171875 0.46875 0.328125 0.9375q0.15625 0.453125 0.25 1.28125q-0.28125 0.9375 -0.40625 1.625q-0.109375 0.6875 -0.25 1.546875q-0.5625 1.25 -1.046875 2.125q-0.484375 0.859375 -0.8125 1.59375q-0.171875 0.15625 -0.265625 0.328125q-0.09375 0.171875 -0.25 0.453125q-0.046875 0.0625 -0.15625 0.296875q-0.109375 0.21875 -0.5625 0.671875l-0.359375 -0.25l0.015625 0.578125l-0.671875 0.1875l-0.140625 0.171875q-0.609375 1.078125 -1.34375 1.875q-0.734375 0.78125 -1.65625 1.390625q-0.90625 0.59375 -2.015625 1.09375q-1.109375 0.484375 -2.625 1.140625q-0.703125 -0.078125 -1.109375 -0.09375q-0.40625 -0.015625 -0.734375 -0.046875q-0.625 0 -1.96875 -0.140625q-0.15625 -0.40625 -0.15625 -0.40625q0 0 -0.171875 0q-0.890625 -0.4375 -1.234375 -1.046875q-0.328125 -0.609375 -0.578125 -1.203125q-0.15625 -0.328125 -0.3125 -0.609375q-0.140625 -0.296875 -0.8125 -1.34375l0.953125 0.046875l-0.59375 -0.171875q-0.046875 -0.0625 -0.125 -0.140625q-0.078125 -0.078125 -0.328125 -0.375l-0.046875 -0.75q-0.09375 -2.234375 -0.078125 -4.140625q0.015625 -1.921875 0.5 -3.375l0 -0.296875q0.109375 -0.78125 0.203125 -1.25q0.109375 -0.46875 0.15625 -0.859375q0.109375 -0.75 0.421875 -1.796875q0.609375 -0.140625 0.765625 -0.328125q0.15625 -0.1875 0.5 -0.640625q1.046875 -0.0625 1.375 0.25q0.328125 0.296875 0.515625 0.75q0.140625 0.234375 0.3125 0.5q0.1875 0.25 0.8125 0.484375q0.125 0.578125 0.21875 0.828125q0.109375 0.25 0.21875 0.5625q0.28125 0.546875 0.515625 1.203125q0.234375 0.65625 0.28125 1.5q-0.375 0.703125 -0.546875 1.4375q-0.15625 0.71875 -0.203125 1.5q-0.046875 0.765625 0.03125 1.453125q0.078125 0.671875 0.234375 1.09375l-0.0625 -0.015625l0.03125 -0.046875q0.875 -0.234375 1.609375 -0.53125q0.75 -0.296875 1.375 -0.671875q0.625 -0.375 1.203125 -0.90625q0.578125 -0.53125 1.25 -1.265625q0.609375 -0.65625 1.0625 -1.546875q0.46875 -0.890625 0.78125 -1.875q0.328125 -0.984375 0.5 -1.953125q0.171875 -0.96875 0.265625 -2.296875q0.515625 -0.171875 0.515625 -0.203125l-0.03125 -0.15625q-0.25 -0.390625 0.015625 -0.96875q0.265625 -0.859375 1.59375 -1.4375q0.890625 0.53125 1.3125 0.953125q0.4375 0.421875 0.96875 0.984375zm8.526901 18.9375q-0.890625 0.296875 -2.015625 0.59375q-1.109375 0.3125 -2.265625 0.3125q-1.890625 0 -3.109375 -1.078125q-0.1875 -0.375 -0.265625 -0.46875q-0.140625 -0.1875 -0.265625 -0.40625q-0.125 -0.21875 -0.140625 -0.40625q-0.328125 -0.390625 -0.59375 -1.078125q-0.265625 -0.6875 -0.359375 -1.390625q-0.078125 -0.703125 -0.03125 -1.40625q0.046875 -0.71875 0.25 -1.4375q0.03125 -0.078125 0.046875 -0.15625q0.015625 -0.09375 0.046875 -0.296875q0.15625 -0.546875 0.3125 -1.09375q0.15625 -0.546875 0.453125 -0.640625q-0.296875 -0.1875 -0.109375 -0.703125q0.203125 -0.53125 0.359375 -0.8125q0.4375 -1.1875 0.734375 -2.03125q0.3125 -0.859375 0.640625 -1.71875q0.546875 -1.421875 1.015625 -2.8125q0.484375 -1.40625 0.921875 -3.296875q0.515625 -0.3125 0.703125 -0.40625q0.28125 -0.109375 0.6875 -0.21875q0.765625 0.40625 1.46875 0.65625q0.703125 0.234375 1.28125 0.234375q0.546875 0.328125 0.640625 0.453125q0.09375 0.109375 0.125 0.15625q0.421875 0.484375 0.75 1.046875q0.34375 0.5625 0.171875 1.671875q-0.46875 0.71875 -0.84375 0.15625q0.40625 0.71875 0.21875 1.203125q-0.1875 0.484375 -0.390625 0.953125q-0.234375 0.484375 -0.40625 0.921875q-0.171875 0.4375 -0.3125 1.234375q-0.171875 0.21875 -0.203125 0.3125q-0.03125 0.078125 -0.109375 0.25q-0.078125 0.1875 -0.1875 0.4375q-0.109375 0.234375 -0.3125 0.21875q0.0625 0.734375 -0.171875 1.296875q-0.234375 0.5625 -0.46875 1.078125q-0.359375 0.90625 -0.65625 1.796875q-0.28125 0.875 -0.890625 1.75q-0.09375 -0.5625 0.109375 -0.5625q0.203125 0 0.328125 0q0.375 0 0.59375 0.046875q0.859375 -0.453125 2.078125 -0.546875q1.234375 -0.109375 2.375 -0.140625q0.46875 0 0.890625 0q0.421875 0 1.0 -0.125q0.40625 0.25 0.390625 0.25q-0.015625 0 0.09375 0q0.28125 0 0.71875 0.078125q0.4375 0.421875 0.71875 0.546875q0.296875 0.125 0.65625 0.25q0.390625 0.140625 0.765625 0.3125q0.390625 0.15625 1.0 0.640625l0.234375 1.46875q0.34375 0.4375 0.125 0.765625q0.109375 0.453125 -0.34375 0.40625l0.5 0.796875q-1.015625 0.1875 -1.109375 0.25q-0.078125 0.0625 -0.359375 0.375q-0.546875 0.0625 -0.6875 0.0625q-0.125 0 -0.21875 0q-0.375 0 -1.125 0.1875q-0.953125 -0.328125 -1.78125 -0.328125q-0.328125 0 -0.703125 0.046875q-0.359375 0.03125 -0.734375 0.0625q-0.390625 0.0625 -0.8125 0.09375q-0.421875 0.03125 -0.78125 0.03125l-0.640625 0.15625zm27.67691 -18.921875q0.09375 0.703125 0.078125 0.875q-0.015625 0.171875 -0.03125 0.25q-0.015625 0.0625 -0.015625 0.09375q0 0.03125 0.109375 0.46875q-0.9375 1.515625 -1.96875 1.984375q-1.015625 0.46875 -2.09375 0.65625q-1.0625 0.171875 -2.078125 0.359375q-1.015625 0.1875 -2.25 0.9375q-0.46875 -0.171875 -0.765625 -0.03125q-0.28125 0.140625 -0.84375 -0.03125q-0.046875 0.203125 -0.421875 0.3125q-0.359375 0.09375 -0.46875 -0.296875q0.4375 0 0.421875 0.296875q0 0.296875 -0.375 0.28125q0.890625 -0.234375 2.234375 -0.359375q1.34375 -0.140625 3.28125 -0.1875q0.21875 1.109375 -0.109375 1.078125q-0.3125 -0.03125 -0.21875 -0.1875q0.375 -0.15625 0.625 0.109375q0.25 0.25 0.4375 0.453125q0.1875 0.1875 0.28125 0.25q0.109375 0.0625 0.703125 -0.015625q0.390625 0.8125 0.453125 1.265625q0.0625 0.4375 -0.203125 1.140625q-0.6875 0.453125 -1.21875 0.84375q-0.53125 0.390625 -1.15625 0.703125q-0.609375 0.3125 -1.328125 0.515625q-0.71875 0.203125 -1.578125 0.171875q-0.15625 0 -0.375 0q-0.203125 0 -0.078125 -0.515625q-0.09375 0.609375 -0.5625 0.546875q-0.46875 -0.0625 -0.8125 0.15625q-0.546875 -0.25 -1.046875 -0.234375q-0.484375 0.015625 -0.5625 -0.15625q-0.125 0.40625 -0.53125 1.140625q-0.390625 0.71875 -0.40625 0.75q0.1875 0.03125 0.859375 0q0.6875 -0.03125 1.328125 -0.109375q0.640625 -0.09375 1.328125 -0.171875q0.703125 -0.078125 1.59375 -0.046875q0.609375 -0.34375 1.515625 -0.453125q0.921875 -0.109375 1.859375 -0.4375q0.640625 0.28125 0.890625 0.578125q0.25 0.296875 0.390625 0.484375q0.15625 0.1875 0.21875 0.234375q0.0625 0.046875 0.390625 0.015625q0.5 0.484375 0.5625 0.765625q0.078125 0.28125 0.09375 0.375q0.015625 0.09375 -0.15625 0.1875q-0.15625 0.09375 1.046875 -0.5q-1.078125 2.375 -1.8125 3.03125q-0.71875 0.640625 -1.625 0.96875q-0.890625 0.328125 -1.90625 0.5q-1.0 0.15625 -2.1875 0.375q-0.484375 0.109375 -0.71875 0.015625q-0.21875 -0.09375 -0.265625 -0.09375q-0.71875 0.140625 -1.796875 0.28125q-1.0625 0.140625 -2.1875 0.109375q-1.125 -0.03125 -2.21875 -0.3125q-1.09375 -0.265625 -1.84375 -1.0q-0.375 -0.359375 -0.453125 -0.59375q-0.0625 -0.25 -0.484375 -0.453125q-0.0625 -0.78125 -0.15625 -1.28125q-0.09375 -0.5 -0.203125 -1.078125q-0.09375 -0.578125 -0.140625 -1.1875q-0.046875 -0.625 0.0625 -1.171875q0.125 -0.640625 0.375 -0.96875q0.265625 -0.328125 0.09375 -1.140625q0.765625 0.296875 0.625 -0.125q-0.125 -0.421875 0.453125 0.0625q-0.265625 -0.515625 -0.03125 -1.046875q0.234375 -0.546875 0.484375 -1.03125q0.25 -0.484375 0.46875 -0.96875q0.234375 -0.484375 0.296875 -0.640625q-0.21875 -0.21875 -0.46875 -0.8125q-0.25 -0.59375 -0.359375 -1.140625q-0.109375 -0.546875 -0.171875 -1.0625q-0.0625 -0.515625 -0.296875 -1.3125q0.5625 -0.875 1.125 -1.234375q0.5625 -0.375 1.171875 -0.578125q0.609375 -0.21875 1.28125 -0.359375q0.671875 -0.140625 1.328125 -0.28125q1.296875 -0.421875 2.34375 -0.65625q1.046875 -0.234375 2.03125 -0.375q1.0 -0.15625 2.0625 -0.28125q1.0625 -0.140625 2.734375 -0.4375q0.328125 0.390625 0.078125 0.609375q0.109375 -0.859375 0.328125 -0.390625q0.234375 0.46875 -0.65625 -2.59375q1.875 3.125 2.28125 3.4375q0.421875 0.296875 1.3125 0.671875z" fill-rule="nonzero"></path></g></svg>

